<svg aria-hidden="true" style="position: absolute; width: 0; height: 0; overflow: hidden;" version="1.1" xmlns="http://www.w3.org/2000/svg" xmlns:xlink="http://www.w3.org/1999/xlink">
<defs>
<symbol id="icon-navi" viewBox="0 0 47 32">
<path d="M8.537 3.878c-0.803 0-1.455 0.651-1.455 1.455v0c0 0.803 0.651 1.455 1.455 1.455v0h36.554c0.803 0 1.455-0.651 1.455-1.455v0c0-0.803-0.651-1.455-1.455-1.455v0z"></path>
<path d="M8.537 23.273c-0.803 0-1.455 0.651-1.455 1.455v0c0 0.803 0.651 1.455 1.455 1.455v0h36.554c0.803 0 1.455-0.651 1.455-1.455v0c0-0.803-0.651-1.455-1.455-1.455v0z"></path>
<path d="M19.668 13.577c-0.803 0-1.455 0.651-1.455 1.455v0c0 0.803 0.651 1.455 1.455 1.455v0h25.423c0.803 0 1.455-0.651 1.455-1.455v0c0-0.803-0.651-1.455-1.455-1.455v0z"></path>
</symbol>
<symbol id="icon-vector" viewBox="0 0 34 32">
<path d="M16.128 6.678l11.783-0.367-2.408 11.54-3.875-4.618-16.128 13.533-1.624-1.937 16.128-13.531-3.875-4.62z"></path>
</symbol>
<symbol id="icon-star" viewBox="0 0 32 32">
<path d="M16 2.667l4.12 8.346 9.213 1.347-6.666 6.493 1.573 9.174-8.24-4.334-8.24 4.334 1.573-9.174-6.666-6.493 9.213-1.347 1.919-3.886z"></path>
</symbol>
<symbol id="icon-logo" viewBox="0 0 233 32">
<path d="M19.471 17.348h-13.192v12.649h-6.28v-29.997h21.368v5.24h-15.089v6.822h13.192v5.286zM32.201 25.66c3.569 0 5.376-2.259 5.376-6.776s-1.807-6.731-5.376-6.731-5.376 2.214-5.376 6.731c0 4.518 1.807 6.776 5.376 6.776zM32.201 30.584c-7.183 0-11.43-4.789-11.43-11.701 0-7.048 4.382-11.701 11.43-11.701 6.957 0 11.294 4.608 11.294 11.701 0 7.048-4.382 11.701-11.294 11.701zM59.716 21.956h5.918c-0.632 5.15-4.834 8.629-10.21 8.629-6.054 0-10.21-4.021-10.21-11.972s4.156-11.43 10.391-11.43c5.783 0 9.713 3.298 10.074 8.538h-5.918c-0.316-2.304-1.988-3.659-4.201-3.659-2.485 0-4.518 1.581-4.518 6.415s2.033 7.183 4.337 7.183c2.304 0 4.111-1.31 4.337-3.704zM87.384 29.997h-5.559v-3.117c-1.536 2.53-3.84 3.704-6.912 3.704-4.427 0-7.544-3.298-7.544-8.177v-14.637h5.873v13.734c0 2.801 1.265 4.156 3.75 4.156 2.982 0 4.563-2.123 4.563-5.060v-12.83h5.828v22.227zM108.979 14.502h-5.647c-0.316-2.168-1.491-2.936-4.156-2.936-2.214 0-3.479 0.542-3.479 1.852s1.22 1.852 3.614 2.53c2.53 0.723 4.924 1.22 6.641 1.897 2.349 0.949 3.659 2.485 3.659 5.376 0 4.608-3.388 7.364-9.713 7.364-6.822 0-10.616-3.208-10.707-7.725h6.054c0 2.078 1.762 3.298 4.608 3.298 2.078 0 3.93-0.632 3.93-2.304 0-1.581-1.672-2.078-3.569-2.53-3.75-0.904-5.828-1.536-7.409-2.53-2.078-1.31-2.801-3.027-2.801-5.015 0-3.75 2.575-6.596 9.352-6.596 6.415 0 9.306 2.53 9.623 7.319zM117.412 29.997h-6.278v-6.099h6.28v6.099zM139.031 17.348h-13.192v12.649h-6.28v-29.997h21.368v5.24h-15.089v6.822h13.192v5.286zM147.494 29.997h-5.873v-22.227h5.512v2.665c1.943-2.982 4.201-3.253 6.596-3.253h0.768v6.008c-0.489-0.086-1.052-0.135-1.626-0.136h-0c-3.614 0-5.376 1.807-5.376 5.376v11.565zM168.495 21.549l0.045-2.44c-0.587 0.587-1.626 0.904-3.795 1.31-3.343 0.632-4.427 1.581-4.427 3.479 0 1.672 0.994 2.485 2.846 2.485 3.027 0 5.286-2.214 5.331-4.834zM174.413 29.997h-5.466c-0.186-0.584-0.315-1.262-0.36-1.962l-0.001-0.026c-1.4 1.536-3.75 2.575-6.731 2.575-5.060 0-7.409-2.485-7.409-6.099 0-6.415 4.292-7.138 10.21-7.951 2.936-0.407 3.75-0.994 3.75-2.53 0-1.446-1.446-2.304-3.75-2.304-2.665 0-3.75 1.31-4.021 3.298h-5.466c0.090-4.608 2.62-7.816 9.758-7.816 7.048 0 9.487 3.162 9.487 8.764v14.050zM208.808 29.997h-5.737v-13.463c0-2.665-1.4-4.563-3.479-4.563-2.168 0-3.75 2.033-3.75 4.744v13.282h-5.873v-13.372c0-3.569-0.949-4.472-3.524-4.472-2.349 0-3.569 1.446-3.569 4.337v13.508h-5.873v-22.227h5.512v3.253c1.491-2.936 3.569-3.84 6.505-3.84 3.027 0 4.472 0.949 6.189 3.524 1.22-2.44 3.208-3.524 6.008-3.524 4.472 0 7.59 3.253 7.59 7.409v15.405zM216.619 16.715h9.080c-0.090-3.298-2.259-4.879-4.563-4.879-2.349 0-4.292 1.807-4.518 4.879zM231.753 20.42h-15.315c0.181 3.343 2.078 5.512 4.969 5.512 1.897 0 3.569-0.949 3.976-2.485h6.054c-1.355 4.563-5.015 7.138-9.758 7.138-7.409 0-11.113-4.066-11.113-12.107 0-6.867 3.93-11.294 10.752-11.294s10.436 4.427 10.436 13.237z"></path>
</symbol>
<symbol id="icon-vector-right" viewBox="0 0 64 32">
<path d="M44.444 0l19.556 15.396-19.556 15.396v-12.729h-44.444v-5.333h44.444v-12.729z"></path>
</symbol>
<symbol id="icon-camera-mob" viewBox="0 0 32 32">
<path d="M21 17c0 2.761-2.239 5-5 5s-5-2.239-5-5v0c0-2.761 2.239-5 5-5s5 2.239 5 5v0z"></path>
<path d="M4 8c-2.209 0-4 1.791-4 4v0 12c0 2.209 1.791 4 4 4v0h24c2.209 0 4-1.791 4-4v0-12c0-2.209-1.791-4-4-4v0h-2.344c-1.104-0-2.104-0.448-2.828-1.172l-1.656-1.656c-0.724-0.724-1.724-1.172-2.828-1.172h-4.688c-1.104 0-2.104 0.448-2.828 1.172l-1.656 1.656c-0.724 0.724-1.724 1.172-2.828 1.172h-2.344zM5 12c-0.552 0-1-0.448-1-1s0.448-1 1-1v0c0.552 0 1 0.448 1 1s-0.448 1-1 1v0zM23 17c0 3.866-3.134 7-7 7s-7-3.134-7-7v0c0-3.866 3.134-7 7-7s7 3.134 7 7v0z"></path>
</symbol>
<symbol id="icon-camera" viewBox="0 0 32 32">
<path d="M21.16 18.16c-0.003 2.848-2.312 5.157-5.16 5.16h-0c-2.848-0.003-5.157-2.312-5.16-5.16v-0c0.003-2.848 2.312-5.157 5.16-5.16h0c2.848 0.005 5.155 2.312 5.16 5.16v0zM32 10.832v14.658c-0.001 1.954-1.586 3.538-3.54 3.538h-24.92c-1.955 0-3.54-1.585-3.54-3.54v-14.654c0-1.954 1.584-3.54 3.54-3.54h4.35v-1.224c0-1.71 1.386-3.096 3.096-3.096h10.028c1.71 0 3.096 1.386 3.096 3.096v1.224h4.352c1.954 0 3.538 1.586 3.538 3.54zM23.814 18.16c-0.005-4.314-3.5-7.81-7.813-7.816h-0.001c-4.314 0.006-7.809 3.502-7.814 7.816v0c0.006 4.313 3.501 7.808 7.813 7.814h0.001c4.313-0.006 7.808-3.501 7.814-7.813v-0.001z"></path>
</symbol>
<symbol id="icon-close" viewBox="0 0 32 32">
<path d="M32 3.223l-3.223-3.223-12.777 12.777-12.777-12.777-3.223 3.223 12.777 12.777-12.777 12.777 3.223 3.223 12.777-12.777 12.777 12.777 3.223-3.223-12.777-12.777 12.777-12.777z"></path>
</symbol>
</defs>
</svg>
